<svg width="48" height="48" viewBox="0 0 48 48" fill="none" xmlns="http://www.w3.org/2000/svg">
<g clip-path="url(#clip0_274_10053)">
<path d="M42.0268 33.2653L48 27.2924L42.0268 21.319L42.9892 20.3566C44.6544 18.6914 44.6544 15.9822 42.9896 14.317C42.1828 13.5107 41.1102 13.0664 39.9694 13.0664C38.8291 13.0664 37.7564 13.5107 36.95 14.317L35.9876 15.2794L30.0143 9.30615L28.2518 11.0691V13.8553C31.3696 14.5982 33.6955 17.4075 33.6955 20.7496C33.6955 24.0919 31.3696 26.9012 28.2518 27.6438V36.2831H23.0808L22.05 37.3141L30.0144 45.2781L35.9877 39.3047L36.8172 40.1346C38.4824 41.7998 41.1916 41.7998 42.8567 40.1346C44.5219 38.4694 44.5218 35.7602 42.8567 34.0951L42.0268 33.2653Z" fill="#ADE87E"/>
<path d="M25.4359 33.4677V25.0201H26.6089C28.964 25.0201 30.8797 23.1046 30.8797 20.7495C30.8797 18.3946 28.964 16.4791 26.6089 16.4791H25.4359V8.03171H16.9885V6.67093C16.9884 4.31583 15.0728 2.40015 12.7178 2.40015C10.363 2.40015 8.44744 4.31583 8.44744 6.67093V8.03171H0V16.4791H1.17338C3.23953 16.4791 4.96725 17.9538 5.35988 19.9061C5.53665 20.1519 5.63175 20.447 5.63175 20.7497C5.63175 21.0524 5.53665 21.3475 5.35988 21.5933C4.96725 23.5452 3.23953 25.0202 1.17338 25.0202H0V33.4677H8.44734V32.1064C8.44734 29.7517 10.363 27.8361 12.7178 27.8361C15.0728 27.8361 16.9885 29.7517 16.9885 32.1064V33.4677H25.4359Z" fill="#ADE87E"/>
</g>
<defs>
<clipPath id="clip0_274_10053">
<rect width="48" height="48" fill="white"/>
</clipPath>
</defs>
</svg>
