<svg width="49" height="48" viewBox="0 0 49 48" fill="none" xmlns="http://www.w3.org/2000/svg">
<g clip-path="url(#clip0_274_10051)">
<path d="M26.8438 24C26.8438 22.7077 25.7923 21.6562 24.5 21.6562C23.2077 21.6562 22.1562 22.7077 22.1562 24C22.1562 25.2923 23.2077 26.3438 24.5 26.3438C25.7923 26.3438 26.8438 25.2923 26.8438 24ZM25.4375 29.1562H23.5625C22.2702 29.1562 21.2188 30.2077 21.2188 31.5V35.2507C22.2603 35.5551 23.3614 35.7188 24.5 35.7188C25.6386 35.7188 26.7397 35.5551 27.7812 35.2507V31.5C27.7812 30.2077 26.7298 29.1562 25.4375 29.1562Z" fill="#ADE87E"/>
<path d="M24.5 12.2812C18.0382 12.2812 12.7812 17.5382 12.7812 24C12.7812 28.2312 15.0357 31.9461 18.4062 34.0063V31.5C18.4062 29.7785 19.2552 28.2525 20.5552 27.3153C19.8 26.4185 19.3438 25.2616 19.3438 24C19.3438 21.1568 21.6568 18.8438 24.5 18.8438C27.3432 18.8438 29.6562 21.1568 29.6562 24C29.6562 25.2616 29.2 26.4185 28.4448 27.3153C29.7448 28.2525 30.5938 29.7785 30.5938 31.5V34.0063C33.9643 31.9461 36.2188 28.2316 36.2188 24C36.2188 17.5382 30.9618 12.2812 24.5 12.2812ZM6.125 11.25C7.16656 11.25 8.1425 10.9643 8.97997 10.4689L13.2833 14.7718C13.8809 14.0468 14.5468 13.3809 15.2718 12.7834L10.9689 8.47997C11.481 7.61578 11.7509 6.62955 11.75 5.625C11.75 2.52319 9.22681 0 6.125 0C3.02319 0 0.5 2.52319 0.5 5.625C0.5 8.72681 3.02319 11.25 6.125 11.25ZM42.875 36.75C41.8704 36.7491 40.8842 37.019 40.02 37.5311L35.7167 33.2282C35.1191 33.9532 34.4532 34.6191 33.7282 35.2166L38.0311 39.52C37.519 40.3842 37.2491 41.3704 37.25 42.375C37.25 45.4768 39.7732 48 42.875 48C45.9768 48 48.5 45.4768 48.5 42.375C48.5 39.2732 45.9768 36.75 42.875 36.75ZM13.2833 33.2282L8.97997 37.5311C8.11578 37.019 7.12955 36.7491 6.125 36.75C3.02319 36.75 0.5 39.2732 0.5 42.375C0.5 45.4768 3.02319 48 6.125 48C9.22681 48 11.75 45.4768 11.75 42.375C11.75 41.3334 11.4643 40.3575 10.9689 39.52L15.2718 35.2167C14.5468 34.6191 13.8809 33.9532 13.2834 33.2282H13.2833ZM35.7354 14.795L40.046 10.4839C40.9041 10.9863 41.8806 11.2508 42.875 11.25C45.9768 11.25 48.5 8.72681 48.5 5.625C48.5 2.52319 45.9768 0 42.875 0C39.7732 0 37.25 2.52319 37.25 5.625C37.249 6.63989 37.5242 7.63593 38.0461 8.50631L33.7505 12.8019C34.4745 13.401 35.1392 14.0684 35.7354 14.7949V14.795Z" fill="#ADE87E"/>
</g>
<defs>
<clipPath id="clip0_274_10051">
<rect width="48" height="48" fill="white" transform="translate(0.5)"/>
</clipPath>
</defs>
</svg>
