<svg width="48" height="48" viewBox="0 0 48 48" fill="none" xmlns="http://www.w3.org/2000/svg">
<g clip-path="url(#clip0_320_265)">
<path d="M34.1562 8.1687H29V7.34058C29 5.05744 26.8972 3.19995 24.3125 3.19995C21.7278 3.19995 19.625 5.05744 19.625 7.34058V8.1687H14.4688V13.1375H34.1562V8.1687ZM26.1875 8.1687H22.4375V7.34058C22.4375 6.4274 23.2787 5.68433 24.3125 5.68433C25.3463 5.68433 26.1875 6.4274 26.1875 7.34058V8.1687Z" fill="#ADE87E"/>
<path d="M36.9688 10.6531V15.6218H11.6562V10.6531H8V45.6H40.625V10.6531H36.9688ZM24.3125 24.7312H31.3438V27.2156H24.3125V24.7312ZM21.5567 37.517L19.5683 39.2735L17.75 37.6678L15.9317 39.2735L13.9433 37.517L15.7611 35.9109L13.9433 34.3047L15.9317 32.5483L17.75 34.154L19.5683 32.5483L21.5567 34.3047L19.7389 35.9109L21.5567 37.517ZM17.1754 26.1251L13.7675 23.1147L15.7563 21.3579L17.1754 22.6117L19.7835 20.3079L21.7724 22.0647L17.1754 26.1251ZM31.3438 39.6375H24.3125V37.1531H31.3438V39.6375ZM35.0938 34.6687H24.3125V32.1843H35.0938V34.6687ZM35.0938 22.2468H24.3125V19.7625H35.0938V22.2468Z" fill="#ADE87E"/>
</g>
<defs>
<clipPath id="clip0_320_265">
<rect width="48" height="48" fill="white"/>
</clipPath>
</defs>
</svg>
