<svg width="143" height="32" viewBox="0 0 143 32" fill="none" xmlns="http://www.w3.org/2000/svg">
<path d="M16 16.0001H32V24.0001H24V32.0001H16V16.0001Z" fill="#1A1D21"/>
<path d="M16 16.0001L-2.38419e-07 16.0001L4.60964e-07 8.00006L8 8.00006L8 6.00974e-05L16 6.07967e-05L16 16.0001Z" fill="#1A1D21"/>
<path d="M8 32L-1.07714e-06 32L-3.77759e-07 24L8 24L8 32Z" fill="#1A1D21"/>
<path d="M24 6.99382e-07L32 1.39876e-06L32 8L24 8L24 6.99382e-07Z" fill="#1A1D21"/>
<path d="M65.2833 4V26.6244H61.9702L49.8263 10.0317H49.6047V26.6244H46V4H49.3364L61.4919 20.6148H61.7136V4H65.2833Z" fill="#1A1D21"/>
<path d="M76.1331 27C74.9977 27 73.9711 26.8012 73.0534 26.4035C72.1357 25.9984 71.4085 25.4129 70.8719 24.647C70.3431 23.881 70.0787 22.942 70.0787 21.83C70.0787 20.8726 70.2731 20.0845 70.6619 19.4659C71.0508 18.8473 71.5757 18.3575 72.2368 17.9966C72.8979 17.6358 73.6367 17.3633 74.4533 17.1792C75.2699 16.995 76.102 16.8551 76.9497 16.7594C78.023 16.6415 78.894 16.5458 79.5628 16.4721C80.2316 16.3911 80.7177 16.2622 81.021 16.0855C81.3243 15.9087 81.476 15.6215 81.476 15.2238V15.1465C81.476 14.1817 81.1882 13.4342 80.6127 12.9039C80.045 12.3737 79.1973 12.1085 78.0696 12.1085C76.8953 12.1085 75.9698 12.3553 75.2932 12.8487C74.6244 13.3348 74.1616 13.8761 73.905 14.4726L70.6269 13.7656C71.0158 12.7346 71.5835 11.9023 72.3301 11.269C73.0845 10.6282 73.9516 10.1643 74.9316 9.87704C75.9115 9.58245 76.9419 9.43516 78.023 9.43516C78.7384 9.43516 79.4967 9.51617 80.2977 9.6782C81.1066 9.83285 81.8609 10.1201 82.5609 10.5399C83.2686 10.9597 83.848 11.5599 84.2991 12.3405C84.7501 13.1138 84.9757 14.1191 84.9757 15.3564V26.6244H81.5693V24.3045H81.4293C81.2038 24.7317 80.8655 25.1515 80.4144 25.5639C79.9633 25.9763 79.3839 26.3188 78.6762 26.5913C77.9685 26.8638 77.1208 27 76.1331 27ZM76.8914 24.3487C77.8557 24.3487 78.6801 24.1683 79.3645 23.8074C80.0567 23.4465 80.5816 22.9752 80.9394 22.3934C81.3049 21.8042 81.4876 21.1745 81.4876 20.5043V18.317C81.3632 18.4348 81.1221 18.5453 80.7644 18.6484C80.4144 18.7442 80.0139 18.8289 79.5628 18.9025C79.1117 18.9688 78.6723 19.0314 78.2446 19.0903C77.8169 19.1419 77.4591 19.186 77.1714 19.2229C76.4948 19.3039 75.8765 19.4401 75.3165 19.6316C74.7644 19.8231 74.3211 20.0993 73.9866 20.4601C73.66 20.8136 73.4967 21.285 73.4967 21.8742C73.4967 22.6916 73.8155 23.3103 74.4533 23.7301C75.091 24.1425 75.9037 24.3487 76.8914 24.3487Z" fill="#1A1D21"/>
<path d="M93.0316 9.6561L96.9862 16.2622L100.976 9.6561H104.791L99.2027 18.1403L104.837 26.6244H101.023L96.9862 20.2834L92.9616 26.6244H89.1353L94.7114 18.1403L89.2053 9.6561H93.0316Z" fill="#1A1D21"/>
<path d="M120.38 19.5874V9.6561H123.879V26.6244H120.45V23.6859H120.263C119.851 24.5917 119.19 25.3466 118.28 25.9505C117.378 26.5471 116.254 26.8453 114.908 26.8453C113.757 26.8453 112.739 26.606 111.852 26.1273C110.973 25.6412 110.281 24.9232 109.775 23.9731C109.278 23.0231 109.029 21.8484 109.029 20.4491V9.6561H112.517V20.0514C112.517 21.2077 112.855 22.1282 113.532 22.8132C114.208 23.4981 115.087 23.8405 116.168 23.8405C116.822 23.8405 117.471 23.6859 118.116 23.3766C118.77 23.0672 119.31 22.5996 119.738 21.9736C120.173 21.3476 120.387 20.5522 120.38 19.5874Z" fill="#1A1D21"/>
<path d="M142.65 13.7988L139.489 14.329C139.356 13.946 139.146 13.5815 138.859 13.2354C138.579 12.8892 138.198 12.6057 137.715 12.3847C137.233 12.1638 136.631 12.0533 135.907 12.0533C134.92 12.0533 134.095 12.2632 133.434 12.683C132.773 13.0954 132.443 13.6294 132.443 14.2848C132.443 14.8519 132.664 15.3085 133.108 15.6547C133.551 16.0008 134.266 16.2843 135.254 16.5053L138.1 17.1239C139.749 17.4848 140.978 18.0408 141.787 18.792C142.596 19.5432 143 20.5191 143 21.7195C143 22.7358 142.689 23.6417 142.067 24.4371C141.452 25.2251 140.593 25.8437 139.489 26.293C138.392 26.7422 137.121 26.9669 135.674 26.9669C133.668 26.9669 132.03 26.5618 130.763 25.7517C129.495 24.9342 128.717 23.7743 128.43 22.2719L131.801 21.7858C132.011 22.618 132.443 23.2477 133.096 23.6748C133.749 24.0946 134.601 24.3045 135.651 24.3045C136.794 24.3045 137.708 24.0799 138.392 23.6306C139.076 23.174 139.419 22.618 139.419 21.9625C139.419 21.4323 139.209 20.9867 138.789 20.6258C138.377 20.265 137.743 19.9925 136.887 19.8084L133.854 19.1787C132.182 18.8178 130.946 18.2434 130.144 17.4553C129.351 16.6673 128.955 15.6694 128.955 14.4616C128.955 13.46 129.25 12.5836 129.841 11.8324C130.432 11.0812 131.249 10.4957 132.291 10.0759C133.333 9.64874 134.527 9.43516 135.872 9.43516C137.809 9.43516 139.333 9.83285 140.445 10.6282C141.557 11.4163 142.292 12.4731 142.65 13.7988Z" fill="#1A1D21"/>
</svg>
